# Blender 4.1.1
# www.blender.org
mtllib brick.mtl
o Cube
v -2.622247 -0.760087 1.037736
v -2.622247 0.836578 1.037736
v -2.622247 -0.760087 -1.243970
v -2.622247 0.836578 -1.243970
v 2.815276 -0.760087 0.988916
v 2.815276 0.836578 0.988916
v 2.815276 -0.760087 -1.292790
v 2.815276 0.836578 -1.292790
vn -1.0000 -0.0000 -0.0000
vn -0.0090 -0.0000 -1.0000
vn 1.0000 -0.0000 -0.0000
vn 0.0090 -0.0000 1.0000
vn -0.0000 -1.0000 -0.0000
vn -0.0000 1.0000 -0.0000
vt 0.794153 0.995215
vt 0.588306 0.995215
vt 0.588306 0.701051
vt 0.794153 0.701051
vt 1.000000 0.701051
vt 0.794153 0.701051
vt 0.794153 -0.000000
vt 1.000000 0.000000
vt 0.205847 0.997856
vt -0.000000 0.997856
vt 0.000000 0.703692
vt 0.205847 0.703692
vt 0.794153 0.701051
vt 0.588306 0.701051
vt 0.588306 0.000000
vt 0.794153 0.000000
vt 0.294153 0.002641
vt 0.294153 0.703692
vt 0.000000 0.701051
vt 0.000000 0.000000
vt 0.294153 0.703692
vt 0.294153 0.002641
vt 0.588306 0.000000
vt 0.588306 0.701051
s 0
f 1/1/1 2/2/1 4/3/1 3/4/1
f 3/5/2 4/6/2 8/7/2 7/8/2
f 7/9/3 8/10/3 6/11/3 5/12/3
f 5/13/4 6/14/4 2/15/4 1/16/4
f 3/17/5 7/18/5 5/19/5 1/20/5
f 8/21/6 4/22/6 2/23/6 6/24/6
